<svg xmlns="http://www.w3.org/2000/svg" width="900" height="140">
<rect width="100%" height="100%" fill="#0a0a0a"/>
<circle cx="10" cy="10" r="5" fill="#1a1a1a"/>
<circle cx="10" cy="25" r="5" fill="#1a1a1a"/>
<circle cx="10" cy="40" r="5" fill="#1a1a1a"/>
<circle cx="10" cy="55" r="5" fill="#1a1a1a"/>
<circle cx="10" cy="70" r="5" fill="#1a1a1a"/>
<circle cx="10" cy="85" r="5" fill="#00ff00"/>
<circle cx="10" cy="100" r="5" fill="#1a1a1a"/>
<circle cx="25" cy="10" r="5" fill="#1a1a1a"/>
<circle cx="25" cy="25" r="5" fill="#1a1a1a"/>
<circle cx="25" cy="40" r="5" fill="#1a1a1a"/>
<circle cx="25" cy="55" r="5" fill="#1a1a1a"/>
<circle cx="25" cy="70" r="5" fill="#1a1a1a"/>
<circle cx="25" cy="85" r="5" fill="#1a1a1a"/>
<circle cx="25" cy="100" r="5" fill="#1a1a1a"/>
<circle cx="40" cy="10" r="5" fill="#1a1a1a"/>
<circle cx="40" cy="25" r="5" fill="#1a1a1a"/>
<circle cx="40" cy="40" r="5" fill="#1a1a1a"/>
<circle cx="40" cy="55" r="5" fill="#1a1a1a"/>
<circle cx="40" cy="70" r="5" fill="#1a1a1a"/>
<circle cx="40" cy="85" r="5" fill="#1a1a1a"/>
<circle cx="40" cy="100" r="5" fill="#1a1a1a"/>
<circle cx="55" cy="10" r="5" fill="#1a1a1a"/>
<circle cx="55" cy="25" r="5" fill="#1a1a1a"/>
<circle cx="55" cy="40" r="5" fill="#1a1a1a"/>
<circle cx="55" cy="55" r="5" fill="#1a1a1a"/>
<circle cx="55" cy="70" r="5" fill="#1a1a1a"/>
<circle cx="55" cy="85" r="5" fill="#1a1a1a"/>
<circle cx="55" cy="100" r="5" fill="#1a1a1a"/>
<circle cx="70" cy="10" r="5" fill="#1a1a1a"/>
<circle cx="70" cy="25" r="5" fill="#1a1a1a"/>
<circle cx="70" cy="40" r="5" fill="#1a1a1a"/>
<circle cx="70" cy="55" r="5" fill="#1a1a1a"/>
<circle cx="70" cy="70" r="5" fill="#1a1a1a"/>
<circle cx="70" cy="85" r="5" fill="#1a1a1a"/>
<circle cx="70" cy="100" r="5" fill="#1a1a1a"/>
<circle cx="85" cy="10" r="5" fill="#1a1a1a"/>
<circle cx="85" cy="25" r="5" fill="#1a1a1a"/>
<circle cx="85" cy="40" r="5" fill="#1a1a1a"/>
<circle cx="85" cy="55" r="5" fill="#1a1a1a"/>
<circle cx="85" cy="70" r="5" fill="#1a1a1a"/>
<circle cx="85" cy="85" r="5" fill="#1a1a1a"/>
<circle cx="85" cy="100" r="5" fill="#1a1a1a"/>
<circle cx="100" cy="10" r="5" fill="#1a1a1a"/>
<circle cx="100" cy="25" r="5" fill="#1a1a1a"/>
<circle cx="100" cy="40" r="5" fill="#1a1a1a"/>
<circle cx="100" cy="55" r="5" fill="#1a1a1a"/>
<circle cx="100" cy="70" r="5" fill="#1a1a1a"/>
<circle cx="100" cy="85" r="5" fill="#1a1a1a"/>
<circle cx="100" cy="100" r="5" fill="#1a1a1a"/>
<circle cx="115" cy="10" r="5" fill="#1a1a1a"/>
<circle cx="115" cy="25" r="5" fill="#1a1a1a"/>
<circle cx="115" cy="40" r="5" fill="#1a1a1a"/>
<circle cx="115" cy="55" r="5" fill="#ffd700"/>
<circle cx="115" cy="70" r="5" fill="#1a1a1a"/>
<circle cx="115" cy="85" r="5" fill="#1a1a1a"/>
<circle cx="115" cy="100" r="5" fill="#1a1a1a"/>
<circle cx="130" cy="10" r="5" fill="#1a1a1a"/>
<circle cx="130" cy="25" r="5" fill="#1a1a1a"/>
<circle cx="130" cy="40" r="5" fill="#1a1a1a"/>
<circle cx="130" cy="55" r="5" fill="#1a1a1a"/>
<circle cx="130" cy="70" r="5" fill="#1a1a1a"/>
<circle cx="130" cy="85" r="5" fill="#1a1a1a"/>
<circle cx="130" cy="100" r="5" fill="#1a1a1a"/>
<circle cx="145" cy="10" r="5" fill="#1a1a1a"/>
<circle cx="145" cy="25" r="5" fill="#1a1a1a"/>
<circle cx="145" cy="40" r="5" fill="#1a1a1a"/>
<circle cx="145" cy="55" r="5" fill="#1a1a1a"/>
<circle cx="145" cy="70" r="5" fill="#1a1a1a"/>
<circle cx="145" cy="85" r="5" fill="#1a1a1a"/>
<circle cx="145" cy="100" r="5" fill="#1a1a1a"/>
<circle cx="160" cy="10" r="5" fill="#1a1a1a"/>
<circle cx="160" cy="25" r="5" fill="#1a1a1a"/>
<circle cx="160" cy="40" r="5" fill="#1a1a1a"/>
<circle cx="160" cy="55" r="5" fill="#1a1a1a"/>
<circle cx="160" cy="70" r="5" fill="#1a1a1a"/>
<circle cx="160" cy="85" r="5" fill="#1a1a1a"/>
<circle cx="160" cy="100" r="5" fill="#1a1a1a"/>
<circle cx="175" cy="10" r="5" fill="#1a1a1a"/>
<circle cx="175" cy="25" r="5" fill="#1a1a1a"/>
<circle cx="175" cy="40" r="5" fill="#1a1a1a"/>
<circle cx="175" cy="55" r="5" fill="#1a1a1a"/>
<circle cx="175" cy="70" r="5" fill="#1a1a1a"/>
<circle cx="175" cy="85" r="5" fill="#1a1a1a"/>
<circle cx="175" cy="100" r="5" fill="#1a1a1a"/>
<circle cx="190" cy="10" r="5" fill="#1a1a1a"/>
<circle cx="190" cy="25" r="5" fill="#1a1a1a"/>
<circle cx="190" cy="40" r="5" fill="#1a1a1a"/>
<circle cx="190" cy="55" r="5" fill="#1a1a1a"/>
<circle cx="190" cy="70" r="5" fill="#1a1a1a"/>
<circle cx="190" cy="85" r="5" fill="#1a1a1a"/>
<circle cx="190" cy="100" r="5" fill="#1a1a1a"/>
<circle cx="205" cy="10" r="5" fill="#1a1a1a"/>
<circle cx="205" cy="25" r="5" fill="#1a1a1a"/>
<circle cx="205" cy="40" r="5" fill="#1a1a1a"/>
<circle cx="205" cy="55" r="5" fill="#1a1a1a"/>
<circle cx="205" cy="70" r="5" fill="#1a1a1a"/>
<circle cx="205" cy="85" r="5" fill="#1a1a1a"/>
<circle cx="205" cy="100" r="5" fill="#1a1a1a"/>
<circle cx="220" cy="10" r="5" fill="#1a1a1a"/>
<circle cx="220" cy="25" r="5" fill="#1a1a1a"/>
<circle cx="220" cy="40" r="5" fill="#1a1a1a"/>
<circle cx="220" cy="55" r="5" fill="#1a1a1a"/>
<circle cx="220" cy="70" r="5" fill="#1a1a1a"/>
<circle cx="220" cy="85" r="5" fill="#1a1a1a"/>
<circle cx="220" cy="100" r="5" fill="#1a1a1a"/>
<circle cx="235" cy="10" r="5" fill="#1a1a1a"/>
<circle cx="235" cy="25" r="5" fill="#1a1a1a"/>
<circle cx="235" cy="40" r="5" fill="#1a1a1a"/>
<circle cx="235" cy="55" r="5" fill="#1a1a1a"/>
<circle cx="235" cy="70" r="5" fill="#1a1a1a"/>
<circle cx="235" cy="85" r="5" fill="#1a1a1a"/>
<circle cx="235" cy="100" r="5" fill="#1a1a1a"/>
<circle cx="250" cy="10" r="5" fill="#1a1a1a"/>
<circle cx="250" cy="25" r="5" fill="#1a1a1a"/>
<circle cx="250" cy="40" r="5" fill="#1a1a1a"/>
<circle cx="250" cy="55" r="5" fill="#1a1a1a"/>
<circle cx="250" cy="70" r="5" fill="#1a1a1a"/>
<circle cx="250" cy="85" r="5" fill="#1a1a1a"/>
<circle cx="250" cy="100" r="5" fill="#1a1a1a"/>
<circle cx="265" cy="10" r="5" fill="#1a1a1a"/>
<circle cx="265" cy="25" r="5" fill="#1a1a1a"/>
<circle cx="265" cy="40" r="5" fill="#1a1a1a"/>
<circle cx="265" cy="55" r="5" fill="#1a1a1a"/>
<circle cx="265" cy="70" r="5" fill="#1a1a1a"/>
<circle cx="265" cy="85" r="5" fill="#1a1a1a"/>
<circle cx="265" cy="100" r="5" fill="#1a1a1a"/>
<circle cx="280" cy="10" r="5" fill="#1a1a1a"/>
<circle cx="280" cy="25" r="5" fill="#1a1a1a"/>
<circle cx="280" cy="40" r="5" fill="#1a1a1a"/>
<circle cx="280" cy="55" r="5" fill="#1a1a1a"/>
<circle cx="280" cy="70" r="5" fill="#1a1a1a"/>
<circle cx="280" cy="85" r="5" fill="#1a1a1a"/>
<circle cx="280" cy="100" r="5" fill="#1a1a1a"/>
<circle cx="295" cy="10" r="5" fill="#1a1a1a"/>
<circle cx="295" cy="25" r="5" fill="#1a1a1a"/>
<circle cx="295" cy="40" r="5" fill="#1a1a1a"/>
<circle cx="295" cy="55" r="5" fill="#1a1a1a"/>
<circle cx="295" cy="70" r="5" fill="#1a1a1a"/>
<circle cx="295" cy="85" r="5" fill="#1a1a1a"/>
<circle cx="295" cy="100" r="5" fill="#1a1a1a"/>
<circle cx="310" cy="10" r="5" fill="#1a1a1a"/>
<circle cx="310" cy="25" r="5" fill="#1a1a1a"/>
<circle cx="310" cy="40" r="5" fill="#1a1a1a"/>
<circle cx="310" cy="55" r="5" fill="#1a1a1a"/>
<circle cx="310" cy="70" r="5" fill="#1a1a1a"/>
<circle cx="310" cy="85" r="5" fill="#1a1a1a"/>
<circle cx="310" cy="100" r="5" fill="#1a1a1a"/>
<circle cx="325" cy="10" r="5" fill="#1a1a1a"/>
<circle cx="325" cy="25" r="5" fill="#1a1a1a"/>
<circle cx="325" cy="40" r="5" fill="#1a1a1a"/>
<circle cx="325" cy="55" r="5" fill="#1a1a1a"/>
<circle cx="325" cy="70" r="5" fill="#1a1a1a"/>
<circle cx="325" cy="85" r="5" fill="#1a1a1a"/>
<circle cx="325" cy="100" r="5" fill="#1a1a1a"/>
<circle cx="340" cy="10" r="5" fill="#1a1a1a"/>
<circle cx="340" cy="25" r="5" fill="#ffd700"/>
<circle cx="340" cy="40" r="5" fill="#1a1a1a"/>
<circle cx="340" cy="55" r="5" fill="#00ff00"/>
<circle cx="340" cy="70" r="5" fill="#00ff00"/>
<circle cx="340" cy="85" r="5" fill="#1a1a1a"/>
<circle cx="340" cy="100" r="5" fill="#1a1a1a"/>
<circle cx="355" cy="10" r="5" fill="#1a1a1a"/>
<circle cx="355" cy="25" r="5" fill="#1a1a1a"/>
<circle cx="355" cy="40" r="5" fill="#1a1a1a"/>
<circle cx="355" cy="55" r="5" fill="#1a1a1a"/>
<circle cx="355" cy="70" r="5" fill="#1a1a1a"/>
<circle cx="355" cy="85" r="5" fill="#1a1a1a"/>
<circle cx="355" cy="100" r="5" fill="#1a1a1a"/>
<circle cx="370" cy="10" r="5" fill="#1a1a1a"/>
<circle cx="370" cy="25" r="5" fill="#1a1a1a"/>
<circle cx="370" cy="40" r="5" fill="#1a1a1a"/>
<circle cx="370" cy="55" r="5" fill="#1a1a1a"/>
<circle cx="370" cy="70" r="5" fill="#1a1a1a"/>
<circle cx="370" cy="85" r="5" fill="#1a1a1a"/>
<circle cx="370" cy="100" r="5" fill="#1a1a1a"/>
<circle cx="385" cy="10" r="5" fill="#1a1a1a"/>
<circle cx="385" cy="25" r="5" fill="#1a1a1a"/>
<circle cx="385" cy="40" r="5" fill="#1a1a1a"/>
<circle cx="385" cy="55" r="5" fill="#1a1a1a"/>
<circle cx="385" cy="70" r="5" fill="#1a1a1a"/>
<circle cx="385" cy="85" r="5" fill="#1a1a1a"/>
<circle cx="385" cy="100" r="5" fill="#00ff00"/>
<circle cx="400" cy="10" r="5" fill="#1a1a1a"/>
<circle cx="400" cy="25" r="5" fill="#1a1a1a"/>
<circle cx="400" cy="40" r="5" fill="#1a1a1a"/>
<circle cx="400" cy="55" r="5" fill="#1a1a1a"/>
<circle cx="400" cy="70" r="5" fill="#1a1a1a"/>
<circle cx="400" cy="85" r="5" fill="#1a1a1a"/>
<circle cx="400" cy="100" r="5" fill="#1a1a1a"/>
<circle cx="415" cy="10" r="5" fill="#1a1a1a"/>
<circle cx="415" cy="25" r="5" fill="#1a1a1a"/>
<circle cx="415" cy="40" r="5" fill="#1a1a1a"/>
<circle cx="415" cy="55" r="5" fill="#1a1a1a"/>
<circle cx="415" cy="70" r="5" fill="#1a1a1a"/>
<circle cx="415" cy="85" r="5" fill="#1a1a1a"/>
<circle cx="415" cy="100" r="5" fill="#1a1a1a"/>
<circle cx="430" cy="10" r="5" fill="#1a1a1a"/>
<circle cx="430" cy="25" r="5" fill="#1a1a1a"/>
<circle cx="430" cy="40" r="5" fill="#1a1a1a"/>
<circle cx="430" cy="55" r="5" fill="#ffffff"/>
<circle cx="430" cy="70" r="5" fill="#1a1a1a"/>
<circle cx="430" cy="85" r="5" fill="#1a1a1a"/>
<circle cx="430" cy="100" r="5" fill="#1a1a1a"/>
<circle cx="445" cy="10" r="5" fill="#1a1a1a"/>
<circle cx="445" cy="25" r="5" fill="#1a1a1a"/>
<circle cx="445" cy="40" r="5" fill="#1a1a1a"/>
<circle cx="445" cy="55" r="5" fill="#1a1a1a"/>
<circle cx="445" cy="70" r="5" fill="#1a1a1a"/>
<circle cx="445" cy="85" r="5" fill="#1a1a1a"/>
<circle cx="445" cy="100" r="5" fill="#1a1a1a"/>
<circle cx="460" cy="10" r="5" fill="#1a1a1a"/>
<circle cx="460" cy="25" r="5" fill="#1a1a1a"/>
<circle cx="460" cy="40" r="5" fill="#1a1a1a"/>
<circle cx="460" cy="55" r="5" fill="#1a1a1a"/>
<circle cx="460" cy="70" r="5" fill="#ff0000"/>
<circle cx="460" cy="85" r="5" fill="#ffffff"/>
<circle cx="460" cy="100" r="5" fill="#1a1a1a"/>
<circle cx="475" cy="10" r="5" fill="#1a1a1a"/>
<circle cx="475" cy="25" r="5" fill="#1a1a1a"/>
<circle cx="475" cy="40" r="5" fill="#1a1a1a"/>
<circle cx="475" cy="55" r="5" fill="#1a1a1a"/>
<circle cx="475" cy="70" r="5" fill="#1a1a1a"/>
<circle cx="475" cy="85" r="5" fill="#ff0000"/>
<circle cx="475" cy="100" r="5" fill="#1a1a1a"/>
<circle cx="490" cy="10" r="5" fill="#ff0000"/>
<circle cx="490" cy="25" r="5" fill="#1a1a1a"/>
<circle cx="490" cy="40" r="5" fill="#1a1a1a"/>
<circle cx="490" cy="55" r="5" fill="#ffd700"/>
<circle cx="490" cy="70" r="5" fill="#ffd700"/>
<circle cx="490" cy="85" r="5" fill="#1a1a1a"/>
<circle cx="490" cy="100" r="5" fill="#1a1a1a"/>
<circle cx="505" cy="10" r="5" fill="#1a1a1a"/>
<circle cx="505" cy="25" r="5" fill="#1a1a1a"/>
<circle cx="505" cy="40" r="5" fill="#1a1a1a"/>
<circle cx="505" cy="55" r="5" fill="#1a1a1a"/>
<circle cx="505" cy="70" r="5" fill="#1a1a1a"/>
<circle cx="505" cy="85" r="5" fill="#1a1a1a"/>
<circle cx="505" cy="100" r="5" fill="#1a1a1a"/>
<circle cx="520" cy="10" r="5" fill="#1a1a1a"/>
<circle cx="520" cy="25" r="5" fill="#1a1a1a"/>
<circle cx="520" cy="40" r="5" fill="#1a1a1a"/>
<circle cx="520" cy="55" r="5" fill="#1a1a1a"/>
<circle cx="520" cy="70" r="5" fill="#1a1a1a"/>
<circle cx="520" cy="85" r="5" fill="#1a1a1a"/>
<circle cx="520" cy="100" r="5" fill="#1a1a1a"/>
<circle cx="535" cy="10" r="5" fill="#1a1a1a"/>
<circle cx="535" cy="25" r="5" fill="#1a1a1a"/>
<circle cx="535" cy="40" r="5" fill="#1a1a1a"/>
<circle cx="535" cy="55" r="5" fill="#1a1a1a"/>
<circle cx="535" cy="70" r="5" fill="#1a1a1a"/>
<circle cx="535" cy="85" r="5" fill="#1a1a1a"/>
<circle cx="535" cy="100" r="5" fill="#1a1a1a"/>
<circle cx="550" cy="10" r="5" fill="#1a1a1a"/>
<circle cx="550" cy="25" r="5" fill="#1a1a1a"/>
<circle cx="550" cy="40" r="5" fill="#1a1a1a"/>
<circle cx="550" cy="55" r="5" fill="#1a1a1a"/>
<circle cx="550" cy="70" r="5" fill="#1a1a1a"/>
<circle cx="550" cy="85" r="5" fill="#1a1a1a"/>
<circle cx="550" cy="100" r="5" fill="#1a1a1a"/>
<circle cx="565" cy="10" r="5" fill="#1a1a1a"/>
<circle cx="565" cy="25" r="5" fill="#1a1a1a"/>
<circle cx="565" cy="40" r="5" fill="#1a1a1a"/>
<circle cx="565" cy="55" r="5" fill="#1a1a1a"/>
<circle cx="565" cy="70" r="5" fill="#1a1a1a"/>
<circle cx="565" cy="85" r="5" fill="#1a1a1a"/>
<circle cx="565" cy="100" r="5" fill="#1a1a1a"/>
<circle cx="580" cy="10" r="5" fill="#1a1a1a"/>
<circle cx="580" cy="25" r="5" fill="#1a1a1a"/>
<circle cx="580" cy="40" r="5" fill="#1a1a1a"/>
<circle cx="580" cy="55" r="5" fill="#1a1a1a"/>
<circle cx="580" cy="70" r="5" fill="#1a1a1a"/>
<circle cx="580" cy="85" r="5" fill="#1a1a1a"/>
<circle cx="580" cy="100" r="5" fill="#1a1a1a"/>
<circle cx="595" cy="10" r="5" fill="#1a1a1a"/>
<circle cx="595" cy="25" r="5" fill="#1a1a1a"/>
<circle cx="595" cy="40" r="5" fill="#1a1a1a"/>
<circle cx="595" cy="55" r="5" fill="#1a1a1a"/>
<circle cx="595" cy="70" r="5" fill="#1a1a1a"/>
<circle cx="595" cy="85" r="5" fill="#1a1a1a"/>
<circle cx="595" cy="100" r="5" fill="#1a1a1a"/>
<circle cx="610" cy="10" r="5" fill="#1a1a1a"/>
<circle cx="610" cy="25" r="5" fill="#1a1a1a"/>
<circle cx="610" cy="40" r="5" fill="#1a1a1a"/>
<circle cx="610" cy="55" r="5" fill="#1a1a1a"/>
<circle cx="610" cy="70" r="5" fill="#1a1a1a"/>
<circle cx="610" cy="85" r="5" fill="#1a1a1a"/>
<circle cx="610" cy="100" r="5" fill="#1a1a1a"/>
<circle cx="625" cy="10" r="5" fill="#1a1a1a"/>
<circle cx="625" cy="25" r="5" fill="#1a1a1a"/>
<circle cx="625" cy="40" r="5" fill="#1a1a1a"/>
<circle cx="625" cy="55" r="5" fill="#1a1a1a"/>
<circle cx="625" cy="70" r="5" fill="#1a1a1a"/>
<circle cx="625" cy="85" r="5" fill="#1a1a1a"/>
<circle cx="625" cy="100" r="5" fill="#1a1a1a"/>
<circle cx="640" cy="10" r="5" fill="#1a1a1a"/>
<circle cx="640" cy="25" r="5" fill="#1a1a1a"/>
<circle cx="640" cy="40" r="5" fill="#1a1a1a"/>
<circle cx="640" cy="55" r="5" fill="#1a1a1a"/>
<circle cx="640" cy="70" r="5" fill="#1a1a1a"/>
<circle cx="640" cy="85" r="5" fill="#1a1a1a"/>
<circle cx="640" cy="100" r="5" fill="#1a1a1a"/>
<circle cx="655" cy="10" r="5" fill="#1a1a1a"/>
<circle cx="655" cy="25" r="5" fill="#1a1a1a"/>
<circle cx="655" cy="40" r="5" fill="#1a1a1a"/>
<circle cx="655" cy="55" r="5" fill="#1a1a1a"/>
<circle cx="655" cy="70" r="5" fill="#1a1a1a"/>
<circle cx="655" cy="85" r="5" fill="#1a1a1a"/>
<circle cx="655" cy="100" r="5" fill="#1a1a1a"/>
<circle cx="670" cy="10" r="5" fill="#1a1a1a"/>
<circle cx="670" cy="25" r="5" fill="#1a1a1a"/>
<circle cx="670" cy="40" r="5" fill="#1a1a1a"/>
<circle cx="670" cy="55" r="5" fill="#1a1a1a"/>
<circle cx="670" cy="70" r="5" fill="#1a1a1a"/>
<circle cx="670" cy="85" r="5" fill="#1a1a1a"/>
<circle cx="670" cy="100" r="5" fill="#1a1a1a"/>
<circle cx="685" cy="10" r="5" fill="#1a1a1a"/>
<circle cx="685" cy="25" r="5" fill="#1a1a1a"/>
<circle cx="685" cy="40" r="5" fill="#1a1a1a"/>
<circle cx="685" cy="55" r="5" fill="#1a1a1a"/>
<circle cx="685" cy="70" r="5" fill="#1a1a1a"/>
<circle cx="685" cy="85" r="5" fill="#1a1a1a"/>
<circle cx="685" cy="100" r="5" fill="#1a1a1a"/>
<circle cx="700" cy="10" r="5" fill="#1a1a1a"/>
<circle cx="700" cy="25" r="5" fill="#1a1a1a"/>
<circle cx="700" cy="40" r="5" fill="#1a1a1a"/>
<circle cx="700" cy="55" r="5" fill="#1a1a1a"/>
<circle cx="700" cy="70" r="5" fill="#1a1a1a"/>
<circle cx="700" cy="85" r="5" fill="#1a1a1a"/>
<circle cx="700" cy="100" r="5" fill="#1a1a1a"/>
<circle cx="715" cy="10" r="5" fill="#1a1a1a"/>
<circle cx="715" cy="25" r="5" fill="#1a1a1a"/>
<circle cx="715" cy="40" r="5" fill="#1a1a1a"/>
<circle cx="715" cy="55" r="5" fill="#1a1a1a"/>
<circle cx="715" cy="70" r="5" fill="#1a1a1a"/>
<circle cx="715" cy="85" r="5" fill="#1a1a1a"/>
<circle cx="715" cy="100" r="5" fill="#1a1a1a"/>
<circle cx="730" cy="10" r="5" fill="#1a1a1a"/>
<circle cx="730" cy="25" r="5" fill="#1a1a1a"/>
<circle cx="730" cy="40" r="5" fill="#1a1a1a"/>
<circle cx="730" cy="55" r="5" fill="#1a1a1a"/>
<circle cx="730" cy="70" r="5" fill="#1a1a1a"/>
<circle cx="730" cy="85" r="5" fill="#1a1a1a"/>
<circle cx="730" cy="100" r="5" fill="#1a1a1a"/>
<circle cx="745" cy="10" r="5" fill="#1a1a1a"/>
<circle cx="745" cy="25" r="5" fill="#1a1a1a"/>
<circle cx="745" cy="40" r="5" fill="#1a1a1a"/>
<circle cx="745" cy="55" r="5" fill="#1a1a1a"/>
<circle cx="745" cy="70" r="5" fill="#ff0000"/>
<circle cx="745" cy="85" r="5" fill="#1a1a1a"/>
<circle cx="745" cy="100" r="5" fill="#1a1a1a"/>
<circle cx="760" cy="10" r="5" fill="#1a1a1a"/>
<circle cx="760" cy="25" r="5" fill="#1a1a1a"/>
<circle cx="760" cy="40" r="5" fill="#1a1a1a"/>
<circle cx="760" cy="55" r="5" fill="#1a1a1a"/>
<circle cx="760" cy="70" r="5" fill="#1a1a1a"/>
<circle cx="760" cy="85" r="5" fill="#ffffff"/>
<circle cx="760" cy="100" r="5" fill="#1a1a1a"/>
<circle cx="775" cy="10" r="5" fill="#1a1a1a"/>
<circle cx="775" cy="25" r="5" fill="#1a1a1a"/>
<circle cx="775" cy="40" r="5" fill="#1a1a1a"/>
<circle cx="775" cy="55" r="5" fill="#1a1a1a"/>
<circle cx="775" cy="70" r="5" fill="#1a1a1a"/>
<circle cx="775" cy="85" r="5" fill="#1a1a1a"/>
<circle cx="775" cy="100" r="5" fill="#00ff00"/>
<circle cx="790" cy="10" r="5" fill="#ffffff"/>
</svg>